<svg id="f115e1f4-ca9e-46ea-99f2-be217fabe967" xmlns="http://www.w3.org/2000/svg" viewBox="0 0 514.64 487.04"><defs><style>.cls-1{fill:#e6e6e6;}.cls-2{fill:#e85555;}.cls-3{fill:#fff;}.cls-4{fill:#3f3d56;}</style></defs><circle class="cls-1" cx="6.81" cy="6.81" r="6.81"/><circle class="cls-1" cx="41.3" cy="6.81" r="6.81"/><circle class="cls-1" cx="75.79" cy="6.81" r="6.81"/><circle class="cls-1" cx="110.28" cy="6.81" r="6.81"/><circle class="cls-1" cx="144.77" cy="6.81" r="6.81"/><circle class="cls-1" cx="179.26" cy="6.81" r="6.81"/><circle class="cls-1" cx="213.75" cy="6.81" r="6.81"/><circle class="cls-1" cx="248.24" cy="6.81" r="6.81"/><circle class="cls-1" cx="282.73" cy="6.81" r="6.81"/><circle class="cls-1" cx="317.21" cy="6.81" r="6.81"/><circle class="cls-1" cx="6.81" cy="41.74" r="6.81"/><circle class="cls-1" cx="41.3" cy="41.74" r="6.81"/><circle class="cls-1" cx="75.79" cy="41.74" r="6.81"/><circle class="cls-2" cx="110.28" cy="41.74" r="6.81"/><circle class="cls-1" cx="144.77" cy="41.74" r="6.81"/><circle class="cls-1" cx="179.26" cy="41.74" r="6.81"/><circle class="cls-1" cx="213.75" cy="41.74" r="6.81"/><circle class="cls-1" cx="248.24" cy="41.74" r="6.81"/><circle class="cls-1" cx="282.73" cy="41.74" r="6.81"/><circle class="cls-1" cx="317.21" cy="41.74" r="6.81"/><circle class="cls-1" cx="6.81" cy="76.66" r="6.81"/><circle class="cls-1" cx="41.3" cy="76.66" r="6.81"/><circle class="cls-1" cx="75.79" cy="76.66" r="6.81"/><circle class="cls-1" cx="110.28" cy="76.66" r="6.81"/><circle class="cls-1" cx="144.77" cy="76.66" r="6.81"/><circle class="cls-1" cx="179.26" cy="76.66" r="6.81"/><circle class="cls-1" cx="213.75" cy="76.66" r="6.81"/><circle class="cls-1" cx="248.24" cy="76.66" r="6.81"/><circle class="cls-1" cx="282.73" cy="76.66" r="6.81"/><circle class="cls-1" cx="317.21" cy="76.66" r="6.81"/><circle class="cls-1" cx="6.81" cy="111.58" r="6.81"/><circle class="cls-1" cx="41.3" cy="111.58" r="6.81"/><circle class="cls-1" cx="75.79" cy="111.58" r="6.81"/><circle class="cls-1" cx="110.28" cy="111.58" r="6.81"/><circle class="cls-1" cx="144.77" cy="111.58" r="6.81"/><circle class="cls-1" cx="179.26" cy="111.58" r="6.81"/><circle class="cls-1" cx="213.75" cy="111.58" r="6.81"/><circle class="cls-1" cx="248.24" cy="111.58" r="6.81"/><circle class="cls-1" cx="282.73" cy="111.58" r="6.81"/><circle class="cls-1" cx="317.21" cy="111.58" r="6.81"/><circle class="cls-1" cx="6.81" cy="146.5" r="6.81"/><circle class="cls-2" cx="41.3" cy="146.5" r="6.81"/><circle class="cls-1" cx="75.79" cy="146.5" r="6.81"/><circle class="cls-1" cx="110.28" cy="146.5" r="6.81"/><circle class="cls-1" cx="144.77" cy="146.5" r="6.81"/><circle class="cls-1" cx="179.26" cy="146.5" r="6.81"/><circle class="cls-1" cx="213.75" cy="146.5" r="6.81"/><circle class="cls-1" cx="248.24" cy="146.5" r="6.81"/><circle class="cls-1" cx="282.73" cy="146.5" r="6.81"/><circle class="cls-1" cx="317.21" cy="146.5" r="6.81"/><circle class="cls-1" cx="6.81" cy="181.42" r="6.81"/><circle class="cls-1" cx="41.3" cy="181.42" r="6.81"/><circle class="cls-1" cx="75.79" cy="181.42" r="6.81"/><circle class="cls-1" cx="110.28" cy="181.42" r="6.81"/><circle class="cls-1" cx="144.77" cy="181.42" r="6.81"/><circle class="cls-1" cx="179.26" cy="181.42" r="6.81"/><circle class="cls-1" cx="213.75" cy="181.42" r="6.81"/><circle class="cls-1" cx="248.24" cy="181.42" r="6.81"/><circle class="cls-1" cx="282.73" cy="181.42" r="6.81"/><circle class="cls-1" cx="317.21" cy="181.42" r="6.81"/><circle class="cls-1" cx="6.81" cy="216.35" r="6.81"/><circle class="cls-1" cx="41.3" cy="216.35" r="6.81"/><circle class="cls-2" cx="75.79" cy="216.35" r="6.81"/><circle class="cls-1" cx="110.28" cy="216.35" r="6.81"/><circle class="cls-1" cx="144.77" cy="216.35" r="6.81"/><circle class="cls-1" cx="179.26" cy="216.35" r="6.81"/><circle class="cls-1" cx="213.75" cy="216.35" r="6.81"/><circle class="cls-1" cx="248.24" cy="216.35" r="6.81"/><circle class="cls-1" cx="282.73" cy="216.35" r="6.81"/><circle class="cls-1" cx="317.21" cy="216.35" r="6.81"/><circle class="cls-1" cx="6.81" cy="251.27" r="6.81"/><circle class="cls-1" cx="41.3" cy="251.27" r="6.81"/><circle class="cls-1" cx="75.79" cy="251.27" r="6.81"/><circle class="cls-1" cx="110.28" cy="251.27" r="6.81"/><circle class="cls-1" cx="144.77" cy="251.27" r="6.81"/><circle class="cls-1" cx="179.26" cy="251.27" r="6.81"/><circle class="cls-1" cx="213.75" cy="251.27" r="6.81"/><circle class="cls-1" cx="248.24" cy="251.27" r="6.81"/><circle class="cls-1" cx="282.73" cy="251.27" r="6.81"/><circle class="cls-1" cx="317.21" cy="251.27" r="6.81"/><circle class="cls-1" cx="82.6" cy="309.16" r="6.81" transform="matrix(0, -1, 1, 0, -302.68, 367.54)"/><circle class="cls-1" cx="41.3" cy="286.19" r="6.81"/><circle class="cls-1" cx="75.79" cy="286.19" r="6.81"/><circle class="cls-1" cx="110.28" cy="286.19" r="6.81"/><circle class="cls-1" cx="144.77" cy="286.19" r="6.81"/><circle class="cls-1" cx="179.26" cy="286.19" r="6.81"/><circle class="cls-1" cx="213.75" cy="286.19" r="6.81"/><circle class="cls-1" cx="248.24" cy="286.19" r="6.81"/><circle class="cls-1" cx="282.73" cy="286.19" r="6.81"/><circle class="cls-1" cx="317.21" cy="286.19" r="6.81"/><circle class="cls-1" cx="82.6" cy="344.08" r="6.81" transform="matrix(0, -1, 1, 0, -337.6, 402.32)"/><circle class="cls-1" cx="41.3" cy="321.11" r="6.81"/><circle class="cls-1" cx="75.79" cy="321.11" r="6.81"/><circle class="cls-1" cx="110.28" cy="321.11" r="6.81"/><circle class="cls-1" cx="144.77" cy="321.11" r="6.81"/><circle class="cls-1" cx="179.26" cy="321.11" r="6.81"/><circle class="cls-1" cx="213.75" cy="321.11" r="6.81"/><circle class="cls-1" cx="248.24" cy="321.11" r="6.81"/><circle class="cls-1" cx="282.73" cy="321.11" r="6.81"/><circle class="cls-1" cx="317.21" cy="321.11" r="6.81"/><path class="cls-1" d="M476.2,83.86a8.62,8.62,0,0,1,8.61,8.61h0V437a8.62,8.62,0,0,1-8.61,8.62H229a8.62,8.62,0,0,1-8.61-8.62h0V92.47A8.62,8.62,0,0,1,229,83.86H476.2" transform="translate(-75.79 -22.97)"/><path class="cls-3" d="M230,436H475.19V93.48H230Z" transform="translate(-75.79 -22.97)"/><path class="cls-1" d="M420.64,147.67a1.72,1.72,0,0,1,1.72,1.72h0v3.45a1.72,1.72,0,0,1-1.72,1.72H284.53a1.72,1.72,0,0,1-1.72-1.72v-3.45a1.72,1.72,0,0,1,1.72-1.72H420.64" transform="translate(-75.79 -22.97)"/><path class="cls-1" d="M420.64,164a1.72,1.72,0,0,1,1.72,1.72v3.45a1.72,1.72,0,0,1-1.72,1.72H284.53a1.72,1.72,0,0,1-1.72-1.72v-3.45a1.72,1.72,0,0,1,1.72-1.72H420.64" transform="translate(-75.79 -22.97)"/><path class="cls-2" d="M420.64,180.4a1.73,1.73,0,0,1,1.72,1.73v3.44a1.73,1.73,0,0,1-1.72,1.73H284.53a1.73,1.73,0,0,1-1.72-1.73v-3.44a1.73,1.73,0,0,1,1.72-1.73H420.64" transform="translate(-75.79 -22.97)"/><path class="cls-1" d="M420.64,197.13a1.72,1.72,0,0,1,1.72,1.72v3.45a1.72,1.72,0,0,1-1.72,1.72H284.53a1.72,1.72,0,0,1-1.72-1.72v-3.45a1.72,1.72,0,0,1,1.72-1.72H420.64" transform="translate(-75.79 -22.97)"/><path class="cls-1" d="M420.64,213.5a1.72,1.72,0,0,1,1.72,1.72v3.44a1.72,1.72,0,0,1-1.72,1.73H284.53a1.72,1.72,0,0,1-1.72-1.73h0v-3.44a1.72,1.72,0,0,1,1.72-1.72H420.64" transform="translate(-75.79 -22.97)"/><path class="cls-1" d="M420.64,229.86a1.72,1.72,0,0,1,1.72,1.72V235a1.72,1.72,0,0,1-1.72,1.72H284.53a1.72,1.72,0,0,1-1.72-1.72v-3.45a1.72,1.72,0,0,1,1.72-1.72H420.64" transform="translate(-75.79 -22.97)"/><path class="cls-2" d="M285.4,284.92a2,2,0,0,0-2,2v92.91a2,2,0,0,0,2,2H419.53a2,2,0,0,0,2-2V286.92a2,2,0,0,0-2-2Z" transform="translate(-75.79 -22.97)"/><polygon class="cls-4" points="277.24 161.18 275.83 160.81 306.56 45.22 484.79 45.22 484.79 46.68 307.68 46.68 277.24 161.18"/><path class="cls-4" d="M575.14,84.21a15.29,15.29,0,1,1,15.29-15.29h0A15.31,15.31,0,0,1,575.14,84.21Zm0-29.13A13.84,13.84,0,1,0,589,68.92h0A13.85,13.85,0,0,0,575.14,55.08Z" transform="translate(-75.79 -22.97)"/><circle class="cls-2" cx="499.35" cy="45.95" r="5.83"/><polygon class="cls-4" points="272.48 356.94 273.88 357.32 242.94 472.84 64.71 472.5 64.72 471.05 241.82 471.39 272.48 356.94"/><path class="cls-4" d="M126,479.42a15.3,15.3,0,1,1-15.32,15.27h0A15.31,15.31,0,0,1,126,479.42Zm0,29.13a13.84,13.84,0,1,0-13.81-13.86h0A13.85,13.85,0,0,0,125.92,508.55Z" transform="translate(-75.79 -22.97)"/><circle class="cls-2" cx="50.15" cy="471.75" r="5.83"/></svg>