<svg id="Layer_1" data-name="Layer 1" xmlns="http://www.w3.org/2000/svg" viewBox="0 0 560 147.19"><defs><style>.cls-1{fill:#28324b;}.cls-2{fill:#f65158;}.cls-3{fill:none;stroke:#fcee21;stroke-miterlimit:10;}.cls-4,.cls-8{fill:#fbde44;}.cls-5{fill:#b3b3b3;}.cls-6{fill:#fff;}.cls-7{fill:#ffdd5f;}.cls-8{font-size:72px;font-family:BerlinSansFB-Reg, Berlin Sans FB;letter-spacing:0.07em;}</style></defs><rect class="cls-1" width="560" height="147.19"/><path class="cls-2" d="M130.3,50.35a30.13,30.13,0,0,0-49,3.86,33.05,33.05,0,0,0-4.75,18.41A39.22,39.22,0,0,0,82.2,91.91C83.49,94.21,86,98.17,98.83,110c5,4.62,7.77,6.86,16,14,6.92,5.93,12.47,10.81,16,14l11.88-11c7.21-6,13.24-11.15,17.81-15.14,12.57-11,15-13.72,17.23-17.52A45.39,45.39,0,0,0,184,74.69c.35-4.72.85-11.6-3-19a30.92,30.92,0,0,0-17.52-14.84c-13.28-4.2-24.48,2.85-27,4.45A34,34,0,0,0,130.3,50.35Z"/><path class="cls-3" d="M106.21,137.12h0"/><path class="cls-4" d="M133.76,99.83c-.55,17.73-14.37,34.08-27.55,37.29h0a18.78,18.78,0,0,1-5.17.55c-6-.21-12.4-3.72-16.66-6-7.52-4.12-8.28-6.63-14.52-10.32C57.46,114,47.29,116.15,47,113.58c-.73-5.52,46.69-9.52,53.49-29.73.14-.41.26-.81.37-1.23,1.72-7-1.55-14.84,1.88-18.16a5.37,5.37,0,0,1,.69-.55c3.46-2.23,8.9.61,11,1.62,8.44,4.1,15.18,13,18,23a.24.24,0,0,0,0,.08c.08.25.14.51.2.76a0,0,0,0,1,0,0A37.22,37.22,0,0,1,133.76,99.83Z"/><path class="cls-5" d="M106.92,81.69l-.15,7a19.77,19.77,0,0,0-6.33-4.88,17.42,17.42,0,0,0-5-1.59c-7-1.1-12.58-.26-16.67,2.22,3.92-3.33,8.54-8.56,13-12.3,4.68-3.91,6.62-8.1,13.87-12.14a7.25,7.25,0,0,0-3,4.42c-.66,2.71-.15,5.91.69,8.82A42.37,42.37,0,0,0,106,80.05,17.44,17.44,0,0,0,106.92,81.69Z"/><path d="M143.38,66.17A16.3,16.3,0,0,0,135,72.62c-4,6.25-3.18,13.46-2.65,15.94-2.81-10.07-9.55-18.93-18-23-2.07-1-7.51-3.85-11-1.62a5.37,5.37,0,0,0-.69.55,7.25,7.25,0,0,1,3-4.42c.59-.33,1.19-.64,1.76-.92a31.63,31.63,0,0,1,12.1-3.27,29.14,29.14,0,0,1,23.87,10.32Z"/><path d="M112.08,102a20.42,20.42,0,0,1-.59,5.43,22,22,0,0,1-14,15.49c-5.08,2.47-17,1.57-25.82-.49-.57-.38-1.18-.77-1.87-1.17-9.23-3.38-19.88-6.34-30-5.17-6.17.73-11.34,1.24-14.51,3.23C28,117.63,32,115.15,37,112.19c13-7.8,15.52-8.91,21-12.25A146.54,146.54,0,0,0,75.09,87.39c1.21-1,2.45-2,3.66-3h0c4.09-2.48,9.67-3.32,16.67-2.22a19,19,0,0,1,11.35,6.47A21.62,21.62,0,0,1,112.08,102Z"/><path class="cls-6" d="M106.19,137.13C92.05,142,80.36,139,75,135.83c-5.6-3.34-6.84-6.47-15.79-11.29s-14.92-5.58-17.1-5.8a80.29,80.29,0,0,0-16.77.64c3.17-2,8.34-2.5,14.51-3.23,10.11-1.17,20.76,1.79,30,5.17.69.41,1.3.79,1.87,1.18,4.61,3.07,6,5.47,12.65,9.14,4.26,2.32,10.66,5.83,16.66,6A18.78,18.78,0,0,0,106.19,137.13Z"/><path class="cls-5" d="M111.49,107.5a20.49,20.49,0,0,0,.59-5.44,21.64,21.64,0,0,0-5.31-13.33l.15-7C109.92,86.44,116.54,95.55,111.49,107.5Z"/><path class="cls-7" d="M186.06,52v7.56a2.67,2.67,0,0,1-2.66,2.67H171.16V74.48a2.66,2.66,0,0,1-2.66,2.67h-7.56a2.67,2.67,0,0,1-2.67-2.67V62.26H146a2.67,2.67,0,0,1-2.66-2.67V52A2.66,2.66,0,0,1,146,49.37h12.23V37.13a2.67,2.67,0,0,1,2.67-2.66h7.56a2.66,2.66,0,0,1,2.66,2.66V49.37H183.4A2.66,2.66,0,0,1,186.06,52Z"/><path class="cls-4" d="M560,0V49.89l-356.88.5c-13-20.23-38.84-34-68.66-34l-2,0c-23.77.49-44.9,9.75-58.72,24L0,94.32V0Z"/><text class="cls-8" transform="translate(194.83 128.89)">Scanary</text></svg>